<?xml version="1.0" encoding="iso-8859-1"?><!-- Generator: Adobe Illustrator 16.0.0, SVG Export Plug-In . SVG Version: 6.00 Build 0) --><!DOCTYPE svg PUBLIC "-//W3C//DTD SVG 1.1//EN" "http://www.w3.org/Graphics/SVG/1.1/DTD/svg11.dtd"><svg version="1.1" id="Layer_1" xmlns="http://www.w3.org/2000/svg" xmlns:xlink="http://www.w3.org/1999/xlink" x="0px" y="0px" width="453.696px" height="200.494px" viewBox="0 0 453.696 200.494" style="enable-background:new 0 0 453.696 200.494;" xml:space="preserve"><g id="Ebene_x0020_1"><g id="_153574520"><path id="_153577136" d="M58.13,53.962c7.02,0,15.135-1.754,24.349-5.264v22.593c-2.048,0.731-4.972,1.536-8.774,2.414	c1.169,3.363,1.755,6.507,1.755,9.432c0,9.359-2.814,17.512-8.445,24.458c-5.63,6.946-12.906,11.079-21.827,12.394	c-5.848,0.878-8.773,4.022-8.773,9.433c0,1.901,0.95,3.803,2.852,5.703c2.486,2.779,6.142,4.535,10.968,5.266	c20.913,3.217,31.368,11.918,31.368,26.103c0,22.669-13.526,34.002-40.581,34.002c-11.114,0-20.255-1.974-27.419-5.923	C4.532,189.6,0,181.776,0,171.099c0-12.283,6.8-20.691,20.399-25.225v-0.438c-4.972-3.071-7.457-7.751-7.457-14.04	c0-8.189,2.34-13.309,7.02-15.354v-0.439c-4.68-1.608-8.849-5.266-12.504-10.969c-4.095-6.142-6.143-12.723-6.143-19.742	c0-10.529,3.729-19.303,11.188-26.322c7.166-6.581,15.721-9.871,25.665-9.871C45.334,48.698,51.987,50.453,58.13,53.962	L58.13,53.962z M59.007,169.345L59.007,169.345c0-7.459-6.142-11.188-18.427-11.188c-11.845,0-17.768,3.875-17.768,11.627	c0,7.603,6.436,11.405,19.304,11.405C53.377,181.19,59.007,177.242,59.007,169.345z M25.226,85.112L25.226,85.112	c0,10.091,4.606,15.136,13.818,15.136c8.921,0,13.381-5.119,13.381-15.355c0-4.241-1.023-7.896-3.07-10.968	c-2.486-3.363-5.923-5.046-10.311-5.046C29.833,68.878,25.226,74.29,25.226,85.112z"/><path id="_153577064" d="M105.738,32.684c-4.24,0-7.859-1.607-10.857-4.825s-4.497-7.019-4.497-11.406	c0-4.534,1.499-8.408,4.497-11.626S101.498,0,105.738,0c4.095,0,7.642,1.608,10.64,4.826s4.496,7.092,4.496,11.626	c0,4.388-1.498,8.188-4.496,11.406S109.833,32.684,105.738,32.684z"/><path id="_153576992" d="M93.235,147.19c0.293-2.924,0.438-7.896,0.438-14.916V64.052c0-6.872-0.146-11.625-0.438-14.258h24.788	c-0.293,2.779-0.439,7.386-0.439,13.82v67.343c0,7.459,0.146,12.869,0.439,16.232H93.235z"/><path id="_153576920" d="M163.413,49.794h19.084v21.277c-0.731,0-2.084-0.072-4.059-0.219c-1.974-0.146-3.838-0.22-5.594-0.22	h-9.432v40.801c0,9.799,3.217,14.697,9.651,14.697c4.534,0,8.628-1.242,12.285-3.729v21.936	c-5.411,2.926-11.919,4.388-19.524,4.388c-10.675,0-18.059-3.802-22.154-11.405c-3.07-5.705-4.606-14.697-4.606-26.982V71.072	h0.22v-0.438l-3.291-0.219c-1.901,0-4.387,0.219-7.458,0.657V49.794h10.749V41.24c0-4.095-0.22-7.386-0.658-9.871h25.445	c-0.438,2.778-0.658,5.923-0.658,9.432V49.794z"/><path id="_153576848" d="M240.464,49.136c-6.288,0-12.869,2.194-19.742,6.58V17.329c0-8.335,0.146-13.819,0.438-16.451h-25.007	c0.439,2.34,0.658,7.823,0.658,16.451V133.37c0,6.726-0.219,11.334-0.658,13.819h25.445c0-0.439-0.146-2.229-0.438-5.374	c-0.292-3.145-0.438-5.96-0.438-8.445V79.407c5.118-4.825,10.09-7.237,14.916-7.237c5.558,0,9.799,2.777,12.724,8.334	c2.192,4.388,3.29,9.872,3.29,16.453l-0.22,29.612c0,4.974-0.365,11.847-1.096,20.62h26.541	c-0.584-3.655-0.877-10.383-0.877-20.182V96.957c0-12.724-2.852-23.545-8.555-32.466C261.01,54.254,252.016,49.136,240.464,49.136	z"/><path id="_153576776" d="M318.124,148.068c-11.554,0-20.107-5.119-25.665-15.356c-4.387-8.335-6.581-19.23-6.581-32.684V69.976	c0-9.944-0.292-16.672-0.877-20.182h26.323c-0.439,3.218-0.731,10.091-0.878,20.62l-0.219,29.613	c0,8.335,0.95,14.332,2.851,17.986c2.195,4.535,6.216,6.802,12.065,6.802c4.095,0,8.702-2.414,13.82-7.238V63.615	c0-2.486-0.147-5.339-0.439-8.556c-0.294-3.218-0.438-4.972-0.438-5.265h25.444c-0.291,2.486-0.438,7.093-0.438,13.82v67.124	c0,8.627,0.147,14.111,0.438,16.451h-23.909v-7.896C332.893,145.142,325.728,148.068,318.124,148.068z"/><path id="_153576704" d="M416.844,147.847c-7.896,0-14.477-2.851-19.742-8.553v7.896h-23.252	c0.439-2.485,0.659-7.094,0.659-13.819V17.329c0-8.628-0.22-14.111-0.659-16.451h25.007c-0.293,2.632-0.438,8.116-0.438,16.451	v38.169c6.726-4.241,13.309-6.362,19.742-6.362c11.553,0,20.621,5.118,27.201,15.355c5.557,8.921,8.335,19.742,8.335,32.466	c0,13.015-2.925,24.348-8.773,34C437.902,142.218,428.543,147.847,416.844,147.847z M413.553,72.17L413.553,72.17	c-4.827,0-9.871,2.412-15.136,7.237v37.949c4.68,4.533,9.286,6.802,13.819,6.802c5.702,0,10.018-3.145,12.942-9.434	c2.341-4.972,3.51-10.896,3.51-17.768C428.689,80.432,423.644,72.17,413.553,72.17z"/><g><path id="_153576632" d="M110.325,168.216c-1.392-1.889-3.182-3.082-5.616-3.082c-2.337,0-4.573,1.79-4.573,4.226	c0,6.312,14.861,3.677,14.861,16.253c0,7.506-4.672,12.823-12.326,12.823c-5.17,0-8.947-2.981-11.532-7.307l4.723-4.623	c0.993,2.884,3.628,5.468,6.76,5.468c2.981,0,4.821-2.534,4.821-5.418c0-3.877-3.579-4.97-6.511-6.112	c-4.822-1.988-8.352-4.424-8.352-10.239c0-6.213,4.623-11.233,10.936-11.233c3.33,0,7.952,1.641,10.239,4.175L110.325,168.216z"	/><path id="_153576560" d="M135.57,198.436c-11.434,0-18.541-8.748-18.541-19.783c0-11.133,7.357-19.682,18.541-19.682	c11.183,0,18.539,8.549,18.539,19.682C154.109,189.688,147.002,198.436,135.57,198.436z M135.57,166.179L135.57,166.179	c-6.909,0-10.986,6.112-10.986,12.177c0,5.765,2.884,12.873,10.986,12.873c8.101,0,10.983-7.108,10.983-12.873	C146.553,172.291,142.478,166.179,135.57,166.179L135.57,166.179z"/><path id="_153576488" d="M182.732,169.906c-2.038-2.485-5.12-3.977-8.252-3.977c-7.008,0-11.034,6.461-11.034,12.925	c0,6.312,4.176,12.623,10.985,12.623c3.131,0,6.263-1.641,8.301-3.975v8.696c-2.734,1.294-5.468,2.237-8.501,2.237	c-10.536,0-18.34-9.096-18.34-19.434c0-10.638,7.505-20.031,18.49-20.031c2.932,0,5.814,0.796,8.351,2.187V169.906	L182.732,169.906z"/><polygon id="_153576416" points="194.855,197.442 187.549,197.442 187.549,159.965 194.855,159.965	"/><path id="_153576344" d="M207.825,189.539l-3.082,7.902h-7.704l14.614-38.471h5.666l14.216,38.471h-7.805l-2.883-7.902H207.825z M214.137,169.954L214.137,169.954h-0.099l-4.126,13.621h8.897L214.137,169.954z"/><polygon id="_153576272" points="241.071,191.08 251.41,191.08 251.41,197.442 233.765,197.442 233.765,159.965 241.071,159.965	"/><path id="_153576200" d="M293.153,169.906c-2.037-2.485-5.119-3.977-8.251-3.977c-7.008,0-11.034,6.461-11.034,12.925	c0,6.312,4.175,12.623,10.984,12.623c3.132,0,6.264-1.641,8.301-3.975v8.696c-2.733,1.294-5.468,2.237-8.499,2.237	c-10.537,0-18.341-9.096-18.341-19.434c0-10.638,7.505-20.031,18.49-20.031c2.932,0,5.815,0.796,8.35,2.187V169.906	L293.153,169.906z"/><path id="_153576128" d="M314.722,198.436c-11.433,0-18.54-8.748-18.54-19.783c0-11.133,7.356-19.682,18.54-19.682	s18.539,8.549,18.539,19.682C333.261,189.688,326.153,198.436,314.722,198.436z M314.722,166.179L314.722,166.179	c-6.91,0-10.985,6.112-10.985,12.177c0,5.765,2.884,12.873,10.985,12.873s10.985-7.108,10.985-12.873	C325.708,172.291,321.631,166.179,314.722,166.179L314.722,166.179z"/><path id="_153576056" d="M336.833,159.965h10.439c10.834,0,18.091,8.102,18.091,18.787c0,10.539-7.455,18.689-18.143,18.689	h-10.388V159.965z M344.14,191.08L344.14,191.08h1.192c8.995,0,12.477-4.971,12.477-12.378c0-8.15-4.175-12.375-12.477-12.375	h-1.192V191.08z"/><polygon id="_153575504" points="376.243,197.442 368.935,197.442 368.935,159.965 376.243,159.965	"/><polygon id="_153574688" points="381.557,158.971 386.827,158.971 406.559,185.165 406.658,185.165 406.658,159.965	413.966,159.965 413.966,198.188 408.696,198.188 388.965,171.993 388.865,171.993 388.865,197.442 381.557,197.442	"/><path id="_153575624" d="M452.382,177.511v0.944c0,10.586-5.419,19.98-17.048,19.98c-10.936,0-17.846-9.244-17.846-19.582	c0-10.688,7.108-19.883,18.292-19.883c6.362,0,11.929,3.231,14.812,8.946l-6.462,3.479c-1.491-3.379-4.672-5.964-8.549-5.964	c-7.059,0-10.537,7.207-10.537,13.421c0,6.211,3.528,13.12,10.586,13.12c4.573,0,8.401-3.976,8.55-8.5h-7.953v-5.963H452.382z"/></g></g></g></svg>