<?xml version="1.0" encoding="iso-8859-1"?><!-- Generator: Adobe Illustrator 16.0.0, SVG Export Plug-In . SVG Version: 6.00 Build 0) --><!DOCTYPE svg PUBLIC "-//W3C//DTD SVG 1.1//EN" "http://www.w3.org/Graphics/SVG/1.1/DTD/svg11.dtd"><svg version="1.1" id="Livello_1" inkscape:version="0.48.1 " sodipodi:docname="Adobe_Photoshop_CS6_icon.svg" xmlns:rdf="http://www.w3.org/1999/02/22-rdf-syntax-ns#" xmlns:sodipodi="http://sodipodi.sourceforge.net/DTD/sodipodi-0.dtd" xmlns:dc="http://purl.org/dc/elements/1.1/" xmlns:inkscape="http://www.inkscape.org/namespaces/inkscape" xmlns:svg="http://www.w3.org/2000/svg" xmlns:cc="http://creativecommons.org/ns#" xmlns="http://www.w3.org/2000/svg" xmlns:xlink="http://www.w3.org/1999/xlink" x="0px" y="0px" width="289.66px" height="284.665px" viewBox="5.17 5.167 289.66 284.665" style="enable-background:new 5.17 5.167 289.66 284.665;" xml:space="preserve"><sodipodi:namedview id="namedview62" inkscape:window-y="-8" inkscape:window-width="1280" inkscape:pageshadow="2" inkscape:window-maximized="1" inkscape:window-x="-8" inkscape:window-height="738" inkscape:pageopacity="0" inkscape:current-layer="Livello_1" objecttolerance="10" bordercolor="#666666" guidetolerance="10" inkscape:cx="150" showgrid="false" borderopacity="1" pagecolor="#ffffff" inkscape:cy="147.5" inkscape:zoom="1.759322" gridtolerance="10"></sodipodi:namedview><g id="g4179" transform="matrix(0.96553056,0,0,0.9649668,5.170416,5.167397)"><rect id="rect259-6" x="0" style="fill:#1A1A1A;" width="300" height="294.999"/><path id="rect259-3" sodipodi:nodetypes="cccccscsccccccsccccscccsccssccccccssccss" inkscape:connector-curvature="0" d="M0,0	v294.999h300V0H0z M107.094,86.656c15.778,0,27.01,3.696,34.562,10.219c7.219,6.164,12.094,16.663,12.094,28.625	s-3.691,21.773-10.407,28.656c-8.729,8.881-18.893,14.116-36.25,14.843c-4.795,0.201-9.25,0.251-9.25,0.251v38.906H72.5v-121	C72.5,87.156,91.48,86.656,107.094,86.656z M104.562,105.844c-3.706-0.027-6.718,0.094-6.718,0.094v41.781	c2.754,0.268,4.481,0.143,8.562,0.094c13.598-0.163,22-8.433,22-20.937c0-11.234-6.915-20.46-19.969-20.938	C107.137,105.89,105.798,105.852,104.562,105.844L104.562,105.844z M198.469,114.281c10.406,0,18.713,3.42,24.187,6.188v20.375	c-4.019-2.218-15.616-7.156-23.281-7.156c-6.758,0-10.563,2.762-10.563,7.375c0,4.248,3.453,6.464,14.407,10.344	c16.976,5.908,24.1,14.58,24.28,27.875c0,16.805-12.94,30.187-38.687,29.375c-8.835-0.277-18.651-3.78-25.407-7.469v-20.125h0.032	c5.109,3.135,17.157,7.813,25.375,7.813c8.396,0,11.844-2.95,11.844-7.563c0-4.619-2.719-9.461-13.124-12.969	c-18.44-6.279-25.56-13.792-25.376-24.312C162.156,127.04,176.378,114.281,198.469,114.281L198.469,114.281z"/><radialGradient id="rect259_1_" cx="-1211.9871" cy="1560.9205" r="91.0006" gradientTransform="matrix(3.0597 0 0 -3.0831 3857.2378 4812.4131)" gradientUnits="userSpaceOnUse"><stop offset="0.2308" style="stop-color:#419AF2"/><stop offset="0.5549" style="stop-color:#096CD0"/><stop offset="1" style="stop-color:#003E7F"/></radialGradient><path id="rect259" inkscape:connector-curvature="0" style="fill:url(#rect259_1_);" d="M0,0v294.999h300V0H0z M107.094,82.656	c15.778,0,27.01,3.696,34.562,10.219c7.219,6.164,12.094,16.663,12.094,28.625c0,11.962-3.691,21.773-10.407,28.656	c-8.729,8.881-18.893,14.117-36.25,14.844c-4.795,0.201-9.25,0.25-9.25,0.25v38.907H72.5V83.156	C72.5,83.156,91.48,82.656,107.094,82.656z M104.562,101.844c-3.706-0.027-6.718,0.094-6.718,0.094v41.781	c2.754,0.268,4.481,0.143,8.562,0.094c13.598-0.163,22-8.432,22-20.938c0-11.234-6.915-20.459-19.969-20.937	C107.137,101.89,105.798,101.852,104.562,101.844L104.562,101.844z M198.469,110.281c10.406,0,18.713,3.42,24.187,6.188v20.375	c-4.019-2.218-15.616-7.156-23.281-7.156c-6.758,0-10.563,2.762-10.563,7.375c0,4.248,3.453,6.464,14.407,10.343	c16.976,5.908,24.1,14.58,24.28,27.876c0,16.804-12.94,30.185-38.687,29.375c-8.835-0.278-18.651-3.781-25.407-7.469v-20.125h0.032	c5.109,3.134,17.157,7.812,25.375,7.812c8.396,0,11.844-2.949,11.844-7.563c0-4.619-2.719-9.46-13.124-12.968	c-18.44-6.28-25.56-13.793-25.376-24.313C162.156,123.04,176.378,110.281,198.469,110.281L198.469,110.281z"/></g></svg>